<svg width="87" height="31" viewBox="0 0 87 31" fill="none" xmlns="http://www.w3.org/2000/svg">
<rect x="0.5" y="0.5" width="86" height="30" rx="11.5" fill="#201F24"/>
<path d="M19.1775 10.9475L14.625 15.5L19.1775 20.0525" stroke="#E8E7F0" stroke-width="1.5" stroke-miterlimit="10" stroke-linecap="round" stroke-linejoin="round"/>
<path d="M27.3754 15.5H14.7529" stroke="#E8E7F0" stroke-width="1.5" stroke-miterlimit="10" stroke-linecap="round" stroke-linejoin="round"/>
<path d="M45.8214 14.192C46.5734 13.632 46.9574 12.88 46.9574 11.904C46.9574 11.024 46.6374 10.288 45.9974 9.696C45.3734 9.104 44.5894 8.8 43.6774 8.8H39.2294V20H44.0294C44.9734 20 45.7574 19.696 46.4134 19.088C47.0694 18.48 47.3894 17.712 47.3894 16.8C47.3894 15.632 46.7974 14.704 45.8214 14.192ZM43.6774 10.528C44.4934 10.528 45.1174 11.168 45.1174 12C45.1174 12.832 44.4934 13.472 43.6774 13.472H41.0694V10.528H43.6774ZM41.0694 18.272V15.136H44.0294C44.8774 15.136 45.5494 15.824 45.5494 16.704C45.5494 17.584 44.8774 18.272 44.0294 18.272H41.0694ZM55.2971 13.136C54.6411 12.24 53.7131 11.792 52.4971 11.792C51.3931 11.792 50.4651 12.192 49.6811 13.008C48.8971 13.824 48.5131 14.816 48.5131 16C48.5131 17.168 48.8971 18.176 49.6811 18.992C50.4651 19.808 51.3931 20.208 52.4971 20.208C53.7131 20.208 54.6411 19.76 55.2971 18.848V20H57.0251V12H55.2971V13.136ZM50.9611 17.84C50.4811 17.344 50.2411 16.736 50.2411 16C50.2411 15.264 50.4811 14.656 50.9611 14.176C51.4411 13.68 52.0491 13.44 52.7691 13.44C53.4891 13.44 54.0971 13.68 54.5771 14.176C55.0571 14.656 55.2971 15.264 55.2971 16C55.2971 16.736 55.0571 17.344 54.5771 17.84C54.0971 18.32 53.4891 18.56 52.7691 18.56C52.0491 18.56 51.4411 18.32 50.9611 17.84ZM62.8153 20.208C64.3673 20.208 65.7273 19.408 66.4153 18.128L64.9273 17.28C64.5433 18.032 63.7433 18.512 62.7993 18.512C62.0953 18.512 61.5033 18.272 61.0233 17.792C60.5593 17.312 60.3193 16.72 60.3193 16C60.3193 15.28 60.5593 14.688 61.0233 14.208C61.5033 13.728 62.0953 13.488 62.7993 13.488C63.7593 13.488 64.5273 13.952 64.8953 14.72L66.3833 13.856C65.7433 12.592 64.3673 11.792 62.8153 11.792C61.6153 11.792 60.6073 12.192 59.7913 13.008C58.9913 13.808 58.5913 14.8 58.5913 16C58.5913 17.184 58.9913 18.176 59.7913 18.992C60.6073 19.808 61.6153 20.208 62.8153 20.208ZM71.0883 15.92L74.6083 12H72.4963L69.3923 15.536V8.8H67.6643V20H69.3923V16.304L72.6723 20H74.7362L71.0883 15.92Z" fill="#E8E7F0"/>
<rect x="0.5" y="0.5" width="86" height="30" rx="11.5" stroke="#28272B"/>
</svg>
