<svg width="65" height="31" viewBox="0 0 65 31" fill="none" xmlns="http://www.w3.org/2000/svg">
<rect width="65" height="31" rx="12" fill="#2D2D30"/>
<path d="M21.6528 20L19.1088 15.648C20.4368 15.12 21.3328 13.824 21.3328 12.4C21.3328 11.392 20.9808 10.544 20.2768 9.856C19.5888 9.152 18.7408 8.8 17.7328 8.8H13.2528V20H15.0928V15.92H17.2688L19.6368 20H21.6528ZM17.7328 10.528C18.7088 10.528 19.4928 11.36 19.4928 12.4C19.4928 13.44 18.7088 14.272 17.7328 14.272H15.0928V10.528H17.7328ZM30.2594 16.736C30.3074 16.432 30.3234 16.192 30.3234 16.016C30.3234 14.848 29.9394 13.84 29.1874 13.024C28.4354 12.208 27.4754 11.792 26.3074 11.792C25.0754 11.792 24.0514 12.192 23.2674 13.008C22.4834 13.808 22.0834 14.8 22.0834 16C22.0834 17.216 22.4834 18.224 23.2834 19.024C24.0834 19.808 25.1394 20.208 26.4354 20.208C27.9874 20.208 29.1554 19.632 29.9394 18.464L28.5154 17.632C28.0514 18.288 27.3634 18.624 26.4514 18.624C25.1234 18.624 24.1474 17.952 23.8914 16.736H30.2594ZM23.8754 15.328C24.1154 14.112 25.0114 13.36 26.2914 13.36C27.4274 13.36 28.3394 14.032 28.5794 15.328H23.8754ZM33.0834 14.208C33.0834 13.648 33.5954 13.36 34.2514 13.36C34.9714 13.36 35.4834 13.664 35.7554 14.272L37.2114 13.456C36.6514 12.416 35.5794 11.792 34.2514 11.792C33.4194 11.792 32.7154 12.016 32.1554 12.464C31.5954 12.912 31.3234 13.504 31.3234 14.24C31.2914 15.92 32.9074 16.4 34.1074 16.704C34.9554 16.912 35.6274 17.216 35.6274 17.728C35.6274 18.32 35.1794 18.624 34.2674 18.624C33.3554 18.624 32.7634 18.24 32.4914 17.472L31.0034 18.336C31.5154 19.504 32.6834 20.208 34.2674 20.208C35.1634 20.208 35.8994 19.984 36.4914 19.552C37.0834 19.12 37.3874 18.512 37.3874 17.744C37.4194 16.032 35.8194 15.52 34.5874 15.248C33.7554 15.008 33.0834 14.736 33.0834 14.208ZM46.4313 16.736C46.4793 16.432 46.4953 16.192 46.4953 16.016C46.4953 14.848 46.1113 13.84 45.3593 13.024C44.6073 12.208 43.6473 11.792 42.4793 11.792C41.2473 11.792 40.2233 12.192 39.4393 13.008C38.6553 13.808 38.2553 14.8 38.2553 16C38.2553 17.216 38.6553 18.224 39.4553 19.024C40.2553 19.808 41.3113 20.208 42.6073 20.208C44.1593 20.208 45.3273 19.632 46.1113 18.464L44.6873 17.632C44.2233 18.288 43.5353 18.624 42.6233 18.624C41.2953 18.624 40.3193 17.952 40.0633 16.736H46.4313ZM40.0473 15.328C40.2873 14.112 41.1833 13.36 42.4633 13.36C43.5993 13.36 44.5113 14.032 44.7513 15.328H40.0473ZM52.2298 12H50.2458V9.76L48.5178 10.272V12H47.0458V13.664H48.5178V17.504C48.5178 19.6 49.5898 20.32 52.2298 20V18.448C50.9178 18.512 50.2458 18.528 50.2458 17.504V13.664H52.2298V12Z" fill="#C9C8CC"/>
</svg>
